<svg width="40" height="40" viewBox="0 0 40 40" fill="none" xmlns="http://www.w3.org/2000/svg">
<path d="M40 20C40 31.0457 31.0457 40 20 40C8.9543 40 0 31.0457 0 20C0 8.9543 8.9543 0 20 0C31.0457 0 40 8.9543 40 20Z" fill="#85AA9F"/>
<path d="M20.4431 19C26.387 14.517 26.6494 11.8 20.4431 6.99999C14.1183 11.9024 14.9336 14.5009 20.4431 19Z" fill="#FCFCFC"/>
<path d="M19 20.5569C14.517 14.6129 11.8 14.3505 6.99999 20.5569C11.9024 26.8816 14.5009 26.0664 19 20.5569Z" fill="#FCFCFC"/>
<path d="M34 20.5569C29.5169 14.6129 26.8 14.3505 22 20.5569C26.9024 26.8816 29.5009 26.0664 34 20.5569Z" fill="#FCFCFC"/>
<path d="M20.4431 34C26.387 29.517 26.6494 26.8 20.4431 22C14.1183 26.9024 14.9336 29.5009 20.4431 34Z" fill="#FCFCFC"/>
</svg>
